<?xml version="1.0" encoding="iso-8859-1"?>
<svg height="1200px" width="1200px" version="1.1" xmlns="http://www.w3.org/2000/svg" xmlns:xlink="http://www.w3.org/1999/xlink" viewBox="0 0 512 512" xml:space="preserve">
    <!-- Cube -->
    <g transform="scale(0.7) translate(50, 50)">
        <path style="fill:#00D7DF;" d="M477.701,128c-2.009-3.48-4.918-6.439-8.518-8.518L267.637,3.119c-7.201-4.158-16.072-4.158-23.273,0
            L42.82,119.482c-3.6,2.079-6.509,5.039-8.518,8.518l221.699,128L477.701,128z"/>
        <path style="fill:#5286FA;" d="M256.001,512c4.018,0,8.037-1.04,11.636-3.119l201.545-116.364
            c7.201-4.158,11.636-11.84,11.636-20.154V139.636c0-4.158-1.109-8.156-3.119-11.636L256.001,256V512z"/>
        <path style="fill:#424EDE;" d="M244.364,508.881c3.6,2.079,7.618,3.119,11.636,3.119V256L34.3,128
            c-2.009,3.48-3.119,7.478-3.119,11.636v232.727c0,8.315,4.436,15.998,11.636,20.154L244.364,508.881z"/>
    </g>

    <!-- Danger Sign -->
    <g transform="translate(250, 0) scale(0.4)">
        <path style="fill:#FF9900;" d="M507.494,426.066L282.864,53.536c-5.677-9.415-15.87-15.172-26.865-15.172
            c-10.994,0-21.188,5.756-26.865,15.172L4.506,426.066c-5.842,9.689-6.015,21.774-0.451,31.625
            c5.564,9.852,16.001,15.944,27.315,15.944h449.259c11.314,0,21.751-6.093,27.315-15.944
            C513.509,447.839,513.336,435.755,507.494,426.066z"/>
        <path style="fill:#FFDC35;" d="M255.999,38.365c-10.994,0-21.188,5.756-26.865,15.172L4.506,426.066
            c-5.842,9.689-6.015,21.774-0.451,31.625c5.564,9.852,16.001,15.944,27.315,15.944h224.629L255.999,38.365z"/>
        <path style="fill:#F20013;" d="M445.326,432.791H67.108c-3.591,0-6.911-1.909-8.718-5.012c-1.807-3.104-1.827-6.934-0.055-10.056
            L247.23,85.028c1.792-3.155,5.139-5.106,8.767-5.107c0.001,0,0.003,0,0.004,0c3.626,0,6.974,1.946,8.767,5.099l189.324,332.694
            c1.777,3.123,1.759,6.955-0.047,10.061S448.918,432.791,445.326,432.791z M84.436,412.616h343.543L256.013,110.423L84.436,412.616z"/>
        <path style="fill:#FF4B00;" d="M256.332,412.616H84.436l171.576-302.192l-0.01-30.501h-0.005c-3.628,0.001-6.976,1.951-8.767,5.107
            L58.336,417.722c-1.773,3.123-1.752,6.953,0.055,10.056c1.807,3.104,5.127,5.012,8.718,5.012h189.224v-20.175H256.332z"/>
        <path style="fill:#533F29;" d="M279.364,376.883c0,12.344-10.537,23.182-22.88,23.182c-13.246,0-23.182-10.838-23.182-23.182
            c0-12.644,9.935-23.182,23.182-23.182C268.826,353.701,279.364,364.238,279.364,376.883z M273.644,319.681
            c0,9.333-10.236,13.246-17.462,13.246c-9.634,0-17.762-3.914-17.762-13.246c0-35.826-4.214-87.308-4.214-123.134
            c0-11.741,9.634-18.365,21.977-18.365c11.741,0,21.677,6.623,21.677,18.365C277.858,232.373,273.644,283.855,273.644,319.681z"/>
    </g>
</svg>
